<?xml version="1.0" standalone="no"?>
<!DOCTYPE svg PUBLIC "-//W3C//DTD SVG 20010904//EN"
 "http://www.w3.org/TR/2001/REC-SVG-20010904/DTD/svg10.dtd">
<svg version="1.0" xmlns="http://www.w3.org/2000/svg"
 width="873.000000pt" height="873.000000pt" viewBox="0 0 873.000000 873.000000"
 preserveAspectRatio="xMidYMid meet">

<g transform="translate(0.000000,873.000000) scale(0.100000,-0.100000)"
fill="#000000" stroke="none">
<path d="M5736 8718 c-2 -7 -10 -40 -17 -73 -17 -75 -83 -207 -143 -282 -105
-134 -213 -207 -559 -380 -756 -377 -1156 -680 -1366 -1037 -93 -158 -120
-261 -130 -501 -7 -152 -12 -187 -29 -221 -26 -52 -43 -65 -90 -71 -59 -8 -93
15 -142 99 -106 179 -266 276 -592 359 -136 34 -167 47 -196 84 -59 74 -21
204 76 262 l37 23 -36 0 c-51 0 -178 -34 -236 -63 -155 -80 -238 -252 -203
-423 17 -86 59 -152 170 -268 109 -114 132 -153 151 -244 14 -67 7 -116 -45
-322 -13 -52 -29 -121 -36 -153 -7 -33 -22 -70 -37 -88 -26 -30 -29 -31 -94
-27 -56 3 -84 12 -165 52 -165 82 -280 213 -319 363 -31 120 -9 275 60 421 19
39 29 72 23 72 -19 0 -111 -61 -172 -114 -127 -109 -229 -272 -278 -441 -19
-67 -22 -104 -23 -225 0 -179 9 -210 114 -415 148 -289 148 -383 -3 -556 -144
-166 -211 -316 -223 -503 -12 -200 44 -358 178 -501 l38 -40 -13 -54 c-9 -41
-18 -57 -39 -67 -47 -25 -61 -67 -67 -197 l-5 -118 -47 90 -46 89 -8 -86 c-20
-243 61 -502 204 -654 81 -86 157 -136 296 -194 173 -72 206 -99 268 -217 47
-89 155 -195 247 -241 40 -21 75 -35 78 -32 3 3 -12 36 -34 73 -22 37 -47 86
-56 108 -9 22 -16 34 -16 27 -1 -7 4 -22 9 -33 6 -10 8 -19 6 -19 -11 0 -36
61 -30 72 5 7 3 8 -6 3 -8 -5 -11 -3 -8 6 3 8 -1 20 -9 27 -7 7 -13 19 -13 25
0 7 4 6 10 -3 15 -23 12 4 -4 35 -8 15 -16 21 -18 14 -2 -7 -4 6 -4 28 1 23 4
39 8 37 3 -2 9 2 12 8 3 7 3 1 0 -13 -3 -15 -1 -29 4 -33 5 -3 8 10 7 29 -2
38 -40 89 -59 78 -6 -4 -5 0 2 9 10 13 9 18 -5 29 -15 12 -16 12 -10 -4 4 -11
3 -16 -4 -12 -6 4 -8 12 -6 19 6 15 -47 78 -57 69 -4 -4 -5 -1 -2 7 6 16 -36
70 -54 70 -5 0 -10 7 -10 16 0 9 -5 12 -12 8 -7 -5 -9 -2 -5 8 3 10 -3 23 -18
34 -24 18 -24 18 -5 36 11 10 21 18 23 18 5 0 94 -120 135 -180 13 -19 37 -48
53 -65 16 -16 39 -42 50 -57 11 -16 27 -28 35 -28 11 0 13 -13 12 -52 -1 -28
2 -53 8 -55 5 -2 8 -19 6 -39 -3 -25 2 -44 15 -62 11 -15 22 -46 25 -70 4 -23
17 -57 31 -75 13 -18 27 -45 31 -62 9 -34 33 -65 52 -65 7 0 22 -20 33 -45 11
-25 30 -50 43 -56 13 -5 32 -27 43 -47 11 -20 30 -39 42 -42 12 -3 32 -21 45
-40 13 -19 45 -46 73 -60 28 -14 66 -42 85 -63 27 -29 45 -40 78 -44 23 -3 42
-9 42 -14 0 -17 76 -59 106 -59 17 0 37 -7 45 -16 18 -22 64 -44 96 -46 15 -1
47 -12 70 -26 27 -15 55 -23 75 -21 20 2 45 -5 63 -17 19 -13 48 -19 86 -20
35 -1 66 -8 80 -18 26 -18 104 -22 114 -5 5 7 13 5 24 -5 24 -22 75 -30 109
-18 23 8 41 6 74 -6 40 -14 47 -14 75 0 28 14 36 14 77 1 43 -14 48 -14 85 4
24 12 45 17 53 12 19 -13 86 -11 111 3 12 7 47 11 77 9 44 -2 61 2 82 18 22
18 31 19 54 11 33 -13 79 -4 115 21 19 13 36 16 67 12 35 -5 49 -1 83 22 29
19 56 28 90 29 34 1 54 8 72 24 17 16 36 22 68 22 43 0 119 38 119 59 0 5 11
6 24 4 26 -5 76 17 119 53 16 13 37 24 48 24 26 0 69 23 92 48 10 11 33 23 51
26 22 4 47 22 74 51 22 25 49 45 59 45 31 0 79 36 93 69 9 22 19 31 35 31 28
0 80 42 100 80 8 16 31 34 55 44 32 13 45 25 58 56 10 22 21 40 25 40 30 0 80
37 98 71 10 21 33 46 50 54 32 17 69 69 69 98 0 9 4 17 9 17 21 0 70 53 82 87
6 21 27 51 45 69 19 17 34 41 34 54 0 12 14 38 30 57 17 18 30 42 30 52 0 9
16 40 35 67 23 32 35 60 35 82 0 19 9 45 20 59 11 15 20 41 20 60 0 20 9 46
20 60 12 16 20 41 20 66 0 22 7 48 15 57 9 10 16 49 20 115 7 116 16 225 20
225 23 0 173 -86 308 -176 176 -119 200 -136 159 -115 -19 10 -27 10 -40 -1
-9 -7 -13 -8 -9 -2 4 7 -5 23 -20 38 -21 22 -28 24 -41 14 -11 -9 -14 -9 -9
-1 9 15 -30 43 -49 36 -8 -3 -14 -1 -14 5 0 6 6 13 13 15 9 4 9 6 0 6 -6 1
-15 -3 -18 -9 -3 -5 -25 -10 -48 -10 -31 0 -38 -3 -27 -10 12 -8 12 -10 -5
-10 -19 -1 -19 -1 -2 -14 14 -11 15 -15 5 -20 -7 -3 -3 -4 9 -2 13 2 26 0 29
-5 3 -5 0 -9 -7 -9 -20 0 8 -26 49 -46 20 -10 39 -18 42 -17 3 1 7 -8 8 -20 1
-18 -9 -26 -57 -45 -31 -12 -67 -31 -79 -42 -12 -11 -26 -20 -31 -20 -13 0
-127 -116 -144 -145 -53 -99 -132 -262 -131 -272 1 -7 -1 -11 -5 -9 -4 3 -22
-21 -41 -51 -45 -77 -53 -86 -146 -179 -44 -44 -86 -78 -92 -76 -7 2 -17 -8
-23 -22 -7 -14 -18 -26 -25 -26 -7 0 -16 -9 -19 -20 -4 -11 -11 -18 -16 -15
-5 4 -9 -1 -9 -9 0 -8 -5 -18 -12 -22 -8 -5 -9 -1 -5 12 7 18 7 18 -8 0 -8
-11 -15 -25 -15 -31 0 -18 -34 -52 -47 -48 -11 4 -52 -33 -54 -49 -1 -4 -2
-12 -3 -17 0 -5 -5 -13 -10 -18 -5 -5 -6 -3 -2 5 13 21 -3 13 -32 -18 -16 -16
-35 -30 -41 -30 -7 0 -9 -5 -5 -12 5 -8 2 -9 -12 -4 -10 4 -16 4 -13 1 7 -7
-59 -75 -73 -75 -5 0 -6 -5 -2 -11 4 -7 0 -9 -14 -5 -14 5 -27 -2 -46 -25 -14
-17 -23 -36 -20 -41 4 -6 2 -8 -3 -5 -13 8 -36 -17 -26 -27 4 -4 0 -4 -8 -1
-9 3 -28 -6 -47 -25 -30 -28 -73 -52 -97 -54 -5 -1 -10 -7 -10 -15 0 -7 -10
-18 -23 -22 -13 -5 -21 -5 -17 0 3 5 -4 7 -15 4 -11 -3 -23 -10 -27 -16 -4 -6
-1 -7 7 -2 9 5 11 4 6 -3 -4 -7 -15 -12 -25 -12 -10 0 -28 -9 -41 -20 -13 -12
-18 -20 -10 -20 7 0 10 -3 7 -6 -4 -4 -13 -1 -21 5 -10 8 -16 9 -21 1 -3 -6
-10 -8 -15 -5 -16 10 -50 -14 -44 -30 5 -11 2 -13 -9 -9 -23 8 -43 -6 -26 -18
10 -7 9 -8 -6 -4 -11 3 -33 -1 -48 -9 -19 -10 -26 -10 -22 -2 4 7 0 4 -8 -6
-8 -10 -24 -19 -35 -20 -11 0 -18 -5 -16 -9 3 -4 -7 -10 -21 -14 -14 -3 -25
-9 -25 -13 0 -4 -15 -8 -34 -9 -19 -1 -62 -10 -95 -22 -33 -11 -67 -20 -75
-20 -8 0 -27 -5 -43 -11 l-28 -12 28 -7 c58 -17 296 -32 416 -27 290 13 528
122 731 335 106 111 130 126 349 212 153 62 236 111 321 195 124 120 199 266
244 475 40 186 59 209 216 269 47 18 104 44 127 58 53 31 146 123 174 173 l21
37 103 13 c57 6 118 19 137 28 65 33 74 97 22 149 -24 24 -30 25 -95 19 -38
-3 -69 -3 -69 0 0 17 91 110 170 175 139 112 192 190 226 335 27 116 4 277
-56 394 l-18 35 -7 -40 c-23 -135 -91 -226 -210 -282 -54 -25 -70 -28 -170
-28 -102 0 -114 2 -169 30 -72 36 -119 99 -136 180 -20 98 15 248 78 330 123
159 148 196 173 250 47 98 62 188 57 333 -4 104 -10 143 -33 212 l-28 85 -22
-93 c-52 -220 -156 -340 -358 -416 -37 -14 -67 -23 -67 -20 0 3 15 25 34 50
96 125 145 357 116 544 -26 160 -75 262 -237 487 -101 140 -143 231 -150 325
-8 101 7 158 81 323 72 157 92 237 83 325 -18 167 -165 291 -370 314 l-49 6
44 -49 c69 -77 87 -170 47 -246 -23 -43 -50 -70 -144 -143 -94 -72 -223 -183
-300 -257 -75 -72 -149 -125 -174 -125 -13 0 -16 18 -18 113 -2 130 -30 255
-89 394 -118 282 -144 382 -144 557 0 142 18 230 74 366 24 58 64 155 90 217
75 183 91 260 90 448 0 178 -17 273 -75 411 -29 71 -45 89 -53 62z m-977
-1375 c41 -157 52 -275 50 -553 -1 -263 6 -325 63 -537 23 -87 41 -174 41
-193 -1 -27 1 -30 7 -15 8 19 8 19 17 -3 9 -23 9 -22 40 16 28 34 84 142 107
207 13 35 46 238 46 285 0 25 5 52 10 60 7 10 10 -21 10 -96 0 -144 11 -303
20 -279 4 10 6 -3 6 -31 -1 -58 44 -231 55 -213 4 7 7 -3 6 -22 0 -19 9 -54
21 -78 12 -25 22 -51 22 -58 0 -8 4 -11 10 -8 5 3 7 0 4 -8 -3 -8 4 -32 15
-53 12 -21 24 -54 27 -72 5 -25 9 -31 16 -20 7 9 8 6 4 -11 -6 -31 4 -82 15
-75 5 3 9 -10 9 -28 -1 -50 20 -190 32 -215 6 -11 8 -26 4 -31 -3 -6 -2 -21 3
-34 9 -20 10 -19 11 17 2 35 3 37 10 15 8 -24 8 -24 9 -2 1 12 6 22 12 22 6 0
9 -7 5 -15 -3 -8 -1 -15 4 -15 6 0 10 5 10 10 0 6 10 8 23 4 20 -4 26 0 37 25
7 17 16 31 21 31 5 0 9 5 9 10 0 32 131 133 148 115 4 -4 6 -41 5 -83 -1 -41
2 -83 7 -91 7 -12 9 -12 10 -2 0 8 6 11 16 7 12 -5 15 -2 10 9 -3 9 -2 13 3
10 5 -3 12 -1 15 4 3 4 17 9 32 9 18 0 43 17 85 58 32 32 59 62 59 67 0 5 6
14 13 22 34 36 46 56 41 70 -4 11 -2 13 9 10 8 -4 17 1 20 12 8 21 75 141 99
175 21 30 32 19 57 -59 11 -34 36 -101 56 -150 21 -48 41 -97 45 -108 25 -60
49 -171 54 -248 5 -92 -1 -146 -35 -286 -12 -45 -19 -91 -16 -102 3 -10 1 -17
-5 -16 -5 1 -15 -15 -22 -35 -8 -21 -21 -49 -30 -62 -9 -14 -13 -33 -9 -42 4
-11 2 -15 -4 -11 -6 4 -18 -12 -28 -36 -25 -59 -24 -58 -31 -95 -5 -25 -3 -31
8 -27 23 9 45 -26 51 -80 3 -27 17 -72 30 -100 13 -27 32 -66 41 -86 9 -20 37
-60 62 -89 24 -28 44 -55 44 -58 0 -4 16 -24 35 -44 19 -20 35 -42 35 -48 0
-17 71 -5 82 13 5 10 16 17 23 17 8 0 15 5 15 10 0 6 6 10 13 10 6 0 23 16 37
35 14 19 28 35 31 35 8 0 2 -107 -12 -230 -19 -161 13 -249 117 -321 54 -37
169 -88 200 -89 11 0 28 -6 38 -13 15 -11 12 -15 -29 -35 -25 -12 -43 -27 -40
-32 3 -5 0 -7 -8 -5 -7 3 -25 -5 -39 -18 -13 -13 -31 -21 -38 -19 -7 3 -10 0
-6 -7 11 -17 7 -15 -95 38 -52 27 -123 59 -159 71 -36 12 -70 27 -76 31 -6 5
-14 36 -18 68 -4 32 -13 67 -21 77 -8 10 -15 37 -15 59 0 26 -9 53 -24 75 -13
19 -27 51 -31 70 -4 19 -17 46 -30 60 -12 14 -35 49 -50 78 -18 34 -35 52 -47
52 -13 0 -18 7 -18 26 0 17 -12 38 -33 58 -18 17 -43 48 -56 69 -13 22 -30 37
-42 37 -25 0 -69 96 -69 150 0 27 -10 53 -35 91 -20 29 -34 58 -31 65 10 26
-15 81 -54 119 -22 21 -40 47 -40 58 0 25 -23 68 -50 92 -12 11 -38 43 -57 72
-41 63 -96 113 -123 113 -13 0 -27 14 -40 40 -19 36 -62 70 -91 70 -7 0 -28
18 -48 39 -22 24 -51 43 -77 50 -22 6 -51 22 -64 36 -13 14 -31 25 -40 25 -10
0 -42 14 -73 30 -31 16 -69 30 -84 30 -16 0 -46 12 -68 25 -23 15 -55 25 -77
25 -20 0 -53 10 -73 21 -28 17 -45 20 -76 15 -28 -4 -46 -2 -64 10 -14 9 -44
15 -72 15 -26 0 -65 7 -86 16 -30 13 -46 14 -81 6 -24 -5 -51 -6 -59 -2 -12 7
-108 6 -324 -2 -13 0 -43 0 -68 1 -26 1 -56 -5 -68 -13 -16 -10 -39 -13 -75
-9 -39 3 -58 0 -79 -13 -16 -11 -48 -18 -82 -19 -36 -1 -71 -9 -98 -23 -23
-12 -50 -19 -62 -16 -30 8 -65 -4 -100 -33 -17 -14 -35 -22 -41 -19 -20 12
-90 -7 -120 -32 -16 -13 -34 -22 -40 -18 -17 10 -91 -18 -122 -47 -16 -15 -34
-26 -39 -23 -13 9 -82 -24 -114 -54 -16 -16 -47 -32 -68 -35 -24 -5 -52 -21
-79 -46 -23 -22 -51 -40 -63 -40 -30 0 -87 -40 -102 -72 -10 -19 -23 -27 -52
-32 -43 -7 -91 -53 -91 -87 0 -13 -7 -19 -22 -19 -27 0 -81 -36 -99 -66 -8
-13 -34 -34 -59 -47 -32 -16 -54 -38 -75 -74 -18 -32 -43 -57 -63 -67 -31 -15
-66 -71 -56 -88 3 -4 -13 -18 -35 -32 -47 -30 -77 -70 -86 -116 -5 -24 -17
-42 -38 -55 -42 -28 -66 -63 -74 -110 -4 -24 -16 -47 -30 -58 -33 -26 -53 -69
-53 -115 0 -29 -7 -45 -30 -67 -35 -33 -54 -86 -46 -125 3 -19 0 -33 -10 -41
-36 -30 -41 -53 -64 -299 -11 -121 -4 -291 15 -336 7 -18 13 -47 13 -66 0 -19
7 -49 16 -66 9 -17 16 -45 16 -62 0 -17 7 -47 15 -67 8 -19 15 -39 15 -44 0
-9 -56 6 -73 19 -7 5 -24 12 -40 16 -24 6 -26 9 -16 28 10 18 9 20 -5 15 -12
-5 -15 -3 -9 6 14 22 13 48 -2 53 -10 4 -15 20 -15 45 0 21 -4 39 -10 39 -5 0
-7 7 -4 15 4 8 3 23 -1 33 -10 24 -12 102 -2 102 4 0 7 8 7 18 0 9 7 30 15 46
10 19 15 58 15 125 0 87 18 245 40 346 6 28 5 42 -3 48 -8 5 -5 7 7 5 20 -3
26 12 40 94 4 21 14 44 22 52 13 13 13 22 3 58 -16 55 -18 280 -3 299 7 8 15
29 19 48 6 29 97 195 123 226 5 6 28 42 51 80 62 104 76 159 75 299 l-1 118
38 -5 c20 -3 66 -18 101 -35 66 -32 190 -74 197 -67 2 3 -9 9 -24 15 -15 6
-26 12 -24 15 5 4 92 -21 124 -36 11 -6 29 -10 40 -11 22 -1 134 48 136 60 1
4 3 19 4 33 2 14 8 50 13 79 6 30 8 60 5 68 -3 8 0 18 7 22 8 5 14 24 14 43 1
19 4 33 9 30 4 -2 7 5 7 16 0 12 4 21 9 21 15 0 90 105 102 141 6 19 14 43 19
54 25 60 40 238 21 249 -5 3 -7 15 -4 25 3 10 0 22 -6 25 -6 4 -11 18 -11 32
0 23 3 21 44 -20 24 -25 47 -42 51 -38 5 4 5 1 1 -6 -8 -13 30 -50 45 -45 4 1
6 -3 5 -10 -1 -16 91 -120 96 -110 3 5 3 2 2 -4 -2 -7 12 -29 31 -49 19 -20
35 -40 35 -44 0 -3 11 -17 25 -30 23 -22 26 -22 47 -6 31 22 60 41 150 100 66
42 76 52 66 65 -10 13 -10 14 2 4 18 -16 34 -17 24 -1 -4 7 -3 8 5 4 14 -9 43
12 35 25 -3 5 1 7 8 4 7 -3 24 5 38 16 l25 21 -26 -15 c-19 -11 -26 -12 -26
-3 0 12 6 14 45 17 25 2 122 77 122 94 0 9 4 23 9 33 20 35 41 85 41 95 0 17
103 217 125 243 6 6 39 51 75 99 65 87 155 199 197 245 19 21 20 26 8 33 -9 4
-24 5 -35 2 -11 -4 -20 -3 -20 0 0 20 71 105 209 250 101 106 140 153 159 193
9 17 19 32 24 32 4 0 8 7 8 15 0 8 5 15 10 15 6 0 10 6 10 14 0 8 3 16 8 18
10 4 123 230 122 246 0 6 4 12 8 12 4 0 14 20 21 45 7 25 17 45 22 45 4 0 13
-17 18 -37z m-2465 -753 c10 -13 9 -13 -6 -1 -10 7 -18 21 -17 30 0 13 1 14 6
1 3 -8 11 -22 17 -30z m66 -135 c13 -14 21 -25 18 -25 -2 0 -15 11 -28 25 -13
14 -21 25 -18 25 2 0 15 -11 28 -25z m61 -72 c13 -16 12 -17 -3 -4 -10 7 -18
15 -18 17 0 8 8 3 21 -13z m33 -29 c3 -8 2 -12 -4 -9 -6 3 -10 10 -10 16 0 14
7 11 14 -7z m456 -48 c0 -2 -7 -7 -16 -10 -8 -3 -12 -2 -9 4 6 10 25 14 25 6z
m-371 -50 c-3 -3 -11 5 -18 17 -13 21 -12 21 5 5 10 -10 16 -20 13 -22z m2467
-128 c-9 -12 -16 -19 -16 -15 0 11 24 47 28 42 2 -2 -3 -14 -12 -27z m-3449
-410 c-2 -13 -4 -5 -4 17 -1 22 1 32 4 23 2 -10 2 -28 0 -40z m2098 -37 c-3
-6 -11 -11 -16 -11 -5 0 -4 6 3 14 14 16 24 13 13 -3z m-580 -41 c3 -6 -1 -7
-9 -4 -18 7 -21 14 -7 14 6 0 13 -4 16 -10z m395 -74 c0 -3 -4 -8 -10 -11 -5
-3 -10 -1 -10 4 0 6 5 11 10 11 6 0 10 -2 10 -4z m-30 -19 c0 -2 -19 -19 -42
-37 -23 -19 -38 -28 -33 -21 5 9 3 12 -6 9 -8 -3 -13 -10 -12 -15 3 -16 -45
-35 -53 -21 -4 7 -3 8 4 4 6 -4 21 5 34 19 12 14 27 24 34 21 7 -3 22 6 35 20
19 21 39 31 39 21z m-175 -128 c-10 -15 -25 -10 -19 6 4 8 10 12 15 9 5 -3 7
-10 4 -15z m-1450 -79 c3 -6 -1 -7 -9 -4 -18 7 -21 14 -7 14 6 0 13 -4 16 -10z
m2469 -6 c5 -14 4 -15 -7 -5 -18 14 -32 -1 -58 -66 l-20 -48 7 49 c3 27 11 57
17 67 15 23 53 25 61 3z m166 12 c0 -2 -3 -12 -6 -21 -5 -12 -9 -13 -14 -5 -9
14 -50 -48 -50 -74 0 -10 -5 -14 -11 -10 -14 9 -2 74 18 97 14 15 63 25 63 13z
m-320 -16 c0 -5 -6 -10 -13 -10 -18 0 -54 -39 -60 -65 -4 -15 -5 -14 -6 7 -2
46 19 78 51 78 15 0 28 -4 28 -10z m480 2 c0 -5 -9 -19 -20 -32 -11 -13 -20
-28 -20 -33 0 -6 -3 -7 -6 -4 -4 4 1 18 10 31 24 37 19 45 -9 14 -14 -15 -25
-31 -25 -36 0 -4 -7 -17 -16 -28 -14 -18 -15 -16 -9 21 4 22 14 48 22 58 16
17 73 24 73 9z m-3003 -24 c-3 -8 -6 -5 -6 6 -1 11 2 17 5 13 3 -3 4 -12 1
-19z m2363 2 c0 -5 -11 -17 -25 -26 -17 -11 -25 -26 -26 -48 l-1 -31 -11 33
c-14 44 3 82 38 82 14 0 25 -4 25 -10z m780 -2 c-1 -7 -7 -24 -15 -38 -10 -18
-14 -20 -15 -8 0 31 -60 2 -60 -30 0 -8 -3 -13 -6 -9 -9 8 4 42 27 71 21 27
69 36 69 14z m-486 -13 c-4 -8 -10 -15 -15 -15 -4 0 -6 7 -3 15 4 8 10 15 15
15 4 0 6 -7 3 -15z m147 -28 c-10 -9 -11 -8 -5 6 3 10 9 15 12 12 3 -3 0 -11
-7 -18z m487 6 c2 -8 -6 -13 -20 -13 -13 0 -38 -13 -56 -29 -41 -38 -42 -23
-1 24 32 36 68 44 77 18z m-1088 -6 c0 -7 -10 -17 -22 -22 -14 -6 -26 -22 -29
-40 -6 -26 -7 -23 -8 16 0 25 2 49 6 52 11 12 53 7 53 -6z m-155 -38 c4 -11 4
-23 1 -26 -3 -4 -6 0 -6 7 0 7 -11 1 -25 -14 -13 -14 -27 -26 -30 -26 -12 0
-4 45 12 62 21 24 40 23 48 -3z m1218 -14 c-9 -19 -18 -33 -20 -32 -5 6 21 67
29 67 4 0 0 -16 -9 -35z m174 19 c2 -7 -16 -20 -41 -29 -35 -14 -49 -26 -65
-59 -11 -22 -20 -34 -20 -26 -1 27 36 97 60 114 26 18 60 18 66 0z m-1550 -46
c24 -31 21 -43 -10 -45 -17 -1 -34 -8 -39 -15 -5 -9 -8 -9 -8 -1 0 6 -3 18 -6
26 -6 16 20 47 40 47 8 0 18 -6 23 -12z m1703 -7 c0 -5 -8 -11 -18 -13 -10 -3
-41 -35 -67 -71 -27 -36 -54 -63 -59 -60 -6 4 -6 8 1 10 7 3 9 11 6 19 -3 8
11 39 31 69 32 49 40 55 71 55 19 0 35 -4 35 -9z m-1830 -79 c0 -8 -6 -12 -14
-9 -7 3 -23 -1 -34 -8 -10 -8 -22 -11 -26 -8 -13 13 -5 43 16 57 20 14 24 14
40 -1 10 -9 18 -23 18 -31z m1934 -40 c-60 -54 -104 -112 -104 -135 0 -9 -5
-19 -11 -22 -16 -11 -5 45 19 92 33 64 84 113 118 113 29 0 29 -1 -22 -48z
m-2096 -4 c21 -21 13 -37 -20 -46 -27 -7 -35 -6 -42 9 -17 36 33 66 62 37z
m1117 -23 c29 -13 29 -13 -20 -8 -51 5 -280 -12 -310 -23 -9 -4 -21 -16 -25
-28 -9 -20 -9 -21 -9 -1 -1 18 21 46 41 53 4 1 13 5 20 7 46 16 268 16 303 0z
m275 -12 c87 -13 239 -50 215 -53 -5 0 5 -8 23 -17 44 -21 34 -28 -14 -9 -63
25 -203 55 -286 62 -76 7 -77 7 -89 -20 -7 -14 -16 -26 -21 -26 -12 0 18 57
34 64 7 4 3 4 -10 2 -12 -2 -20 0 -17 5 8 11 52 9 165 -8z m855 -38 c-44 -20
-114 -90 -131 -131 -8 -20 -18 -34 -21 -31 -10 11 38 91 80 135 31 32 49 42
72 42 l30 -1 -30 -14z m-2392 -18 c13 -20 13 -24 -8 -39 -22 -16 -24 -16 -44
1 -24 21 -26 32 -9 49 19 19 44 14 61 -11z m3724 1 c-3 -8 -6 -5 -6 6 -1 11 2
17 5 13 3 -3 4 -12 1 -19z m-2982 -14 c-86 -20 -232 -83 -334 -143 l-54 -32
-21 22 -21 22 23 -6 c13 -3 21 -3 18 1 -8 7 207 112 228 112 8 0 26 6 41 14
15 8 34 12 41 9 8 -3 14 -1 14 5 0 5 10 9 23 8 12 -1 33 1 47 5 14 3 29 4 35
1 5 -3 -13 -11 -40 -18z m-1118 -6 c-3 -8 -6 -5 -6 6 -1 11 2 17 5 13 3 -3 4
-12 1 -19z m4093 -22 c0 -3 -4 -8 -10 -11 -5 -3 -10 -1 -10 4 0 6 5 11 10 11
6 0 10 -2 10 -4z m-3864 -48 c11 -13 26 -32 34 -42 13 -18 13 -19 0 -10 -8 5
-32 9 -54 9 -49 0 -72 28 -42 51 27 19 39 18 62 -8z m2694 3 c0 -5 -21 -23
-47 -40 -57 -37 -117 -89 -129 -113 -6 -11 -14 -14 -22 -9 -19 12 86 123 141
149 48 24 57 26 57 13z m-464 -36 c18 -13 18 -14 -4 -8 -12 3 -25 9 -28 14 -8
14 10 11 32 -6z m-1782 -37 c-3 -4 -11 -8 -19 -8 -8 0 -24 -10 -36 -22 l-21
-23 11 23 c6 12 17 22 24 22 9 0 9 2 -1 8 -8 6 -2 9 17 9 17 0 28 -4 25 -9z
m-578 -40 l35 -33 -47 0 c-54 0 -78 21 -55 49 19 22 26 20 67 -16z m2883 -53
c-30 -18 -73 -47 -96 -64 -42 -31 -63 -38 -63 -23 0 13 117 102 153 117 58 24
62 4 6 -30z m-2476 27 c15 -6 13 -9 -13 -19 -18 -7 -32 -8 -36 -2 -3 5 -2 9 3
8 4 -1 15 -1 23 0 13 1 13 2 0 11 -17 11 -4 12 23 2z m507 -30 c0 -5 -6 -16
-13 -26 -12 -16 -13 -16 -13 3 0 11 4 17 8 15 4 -3 8 0 8 5 0 6 2 11 5 11 3 0
5 -4 5 -8z m-580 -10 c0 -5 -39 -35 -86 -67 -168 -114 -294 -225 -297 -263 0
-11 -5 -18 -9 -16 -10 7 -6 54 5 54 4 0 5 5 1 12 -5 7 -3 8 5 4 8 -6 11 -2 9
10 -2 13 2 18 13 16 9 -1 24 8 35 20 10 13 12 17 4 11 -20 -18 -35 -16 -20 2
7 8 21 15 32 15 10 0 16 4 13 10 -3 6 1 7 10 4 12 -5 14 -2 8 12 -6 17 -5 17
10 6 14 -12 16 -11 12 7 -2 13 0 19 6 15 5 -3 15 -1 22 4 7 6 17 12 22 14 6 1
9 6 8 10 -2 4 3 5 10 2 7 -2 22 3 33 13 10 10 46 36 79 58 33 22 62 43 63 48
5 9 12 9 12 -1z m-50 -6 c0 -2 -8 -10 -17 -17 -16 -13 -17 -12 -4 4 13 16 21
21 21 13z m-412 -26 c33 -20 44 -37 17 -27 -8 4 -17 1 -21 -5 -4 -6 -3 -8 4
-4 6 3 14 1 18 -5 5 -8 -6 -9 -37 -4 -65 11 -73 20 -43 49 20 20 22 20 62 -4z
m1507 -20 c10 -11 16 -20 13 -20 -3 0 -13 9 -23 20 -10 11 -16 20 -13 20 3 0
13 -9 23 -20z m-522 -35 c-3 -9 -8 -14 -10 -11 -3 3 -2 9 2 15 9 16 15 13 8
-4z m762 5 c-3 -5 -12 -10 -18 -10 -7 0 -6 4 3 10 19 12 23 12 15 0z m-1760
-20 c10 -11 16 -20 13 -20 -3 0 -13 9 -23 20 -10 11 -16 20 -13 20 3 0 13 -9
23 -20z m3129 -9 c3 -5 -13 -16 -36 -26 -23 -9 -68 -32 -99 -50 -80 -47 -73
-13 8 36 74 45 116 59 127 40z m436 -11 c0 -5 -5 -10 -11 -10 -5 0 -7 5 -4 10
3 6 8 10 11 10 2 0 4 -4 4 -10z m-3648 -38 c26 -25 35 -39 25 -39 -9 0 -14 4
-12 8 3 4 -12 5 -34 2 -61 -8 -101 23 -69 55 21 21 48 13 90 -26z m2363 29 c3
-5 1 -12 -5 -16 -5 -3 -10 1 -10 9 0 18 6 21 15 7z m-215 -28 c99 -35 184
-123 222 -230 16 -46 19 -75 16 -138 -8 -140 -78 -243 -206 -303 -78 -37 -208
-38 -295 -3 -82 32 -166 116 -197 196 -33 83 -33 209 -1 280 80 178 277 263
461 198z m-448 -23 c-17 -16 -34 -30 -38 -30 -4 0 5 14 21 30 16 17 33 30 38
30 5 0 -5 -13 -21 -30z m2863 0 c-10 -11 -23 -20 -29 -20 -6 1 0 10 13 20 30
26 39 26 16 0z m-3638 -36 c105 -51 194 -175 208 -290 8 -66 -16 -169 -54
-231 -60 -96 -175 -157 -297 -156 -61 0 -83 5 -146 35 -296 140 -262 576 51
665 67 19 174 9 238 -23z m-478 -29 c-37 -51 -44 -56 -27 -20 6 14 15 25 21
25 5 0 6 7 3 16 -3 8 -2 12 3 9 5 -3 12 -1 16 5 3 5 8 10 11 10 3 0 -9 -20
-27 -45z m2423 -5 c-27 -26 -28 -51 -2 -126 12 -32 27 -85 36 -116 17 -69 33
-219 22 -212 -4 3 -8 14 -8 25 0 11 -5 30 -11 41 -9 16 -8 19 2 13 9 -6 11 -3
6 9 -4 10 -7 27 -8 39 0 21 -1 21 -9 2 -6 -15 -9 -7 -9 31 -1 28 -8 65 -17 82
-8 18 -13 36 -9 41 8 14 -5 62 -15 56 -5 -3 -6 5 -2 17 3 14 1 19 -6 14 -8 -5
-10 -2 -6 8 3 9 2 16 -3 16 -28 0 2 60 37 73 25 9 25 8 2 -13z m-3001 -5 c19
-8 26 -14 17 -15 -20 0 -25 -20 -6 -20 6 0 8 -3 5 -6 -4 -4 -13 -1 -21 5 -9 8
-24 10 -38 5 -13 -4 -25 -5 -28 -3 -8 6 1 33 13 41 16 10 20 10 58 -7z m3389
-4 c0 -9 -162 -81 -181 -81 -5 0 -9 6 -9 13 0 19 124 74 173 76 9 1 17 -3 17
-8z m-3405 -51 c-3 -5 -11 -10 -16 -10 -6 0 -7 5 -4 10 3 6 11 10 16 10 6 0 7
-4 4 -10z m-61 -95 c20 -14 24 -21 15 -31 -8 -10 -16 -11 -29 -4 -10 6 -32 10
-49 10 -49 0 -62 9 -50 32 9 17 18 19 49 15 20 -2 49 -13 64 -22z m3501 -25
c-32 -15 -149 -61 -160 -63 -5 -1 -11 7 -13 19 -2 16 6 24 35 36 42 16 173 24
138 8z m-1728 -112 c-3 -8 -6 -5 -6 6 -1 11 2 17 5 13 3 -3 4 -12 1 -19z
m-1834 -24 c20 -13 37 -26 37 -28 0 -2 -17 0 -37 5 -21 5 -66 9 -100 9 -67 0
-77 9 -40 35 29 21 89 12 140 -21z m397 -3 c-5 -11 -10 -31 -10 -45 0 -31 -9
-56 -21 -56 -5 0 -9 6 -9 14 0 18 37 106 45 106 3 0 1 -9 -5 -19z m3184 0 c7
-11 -59 -28 -140 -37 -73 -8 -64 8 16 30 63 17 116 20 124 7z m294 -116 c67
-178 102 -366 107 -562 6 -317 -84 -609 -276 -894 -246 -366 -675 -707 -1109
-879 -490 -196 -981 -241 -1460 -134 -191 43 -341 109 -494 218 -162 116 -285
254 -167 188 20 -11 59 -26 86 -33 28 -6 61 -18 75 -24 14 -7 48 -16 75 -20
28 -5 59 -14 70 -21 11 -7 36 -14 55 -15 19 -1 60 -8 90 -15 59 -14 323 -35
405 -32 128 4 325 20 370 30 28 7 58 11 68 9 9 -1 43 6 75 15 31 10 63 16 71
15 8 -1 44 6 80 17 36 11 84 24 106 30 43 11 121 36 170 54 17 6 62 22 100 35
39 14 77 31 85 38 8 7 41 23 74 35 32 12 66 30 75 39 9 9 42 27 73 40 31 12
66 34 79 48 13 14 42 34 64 44 22 10 62 36 88 57 25 20 73 57 104 82 107 84
322 295 323 317 0 6 14 21 30 33 17 12 37 36 46 53 9 18 30 46 48 62 42 40
170 255 219 369 21 50 52 132 68 181 50 158 97 517 84 650 -8 85 2 79 43 -30z
m689 28 c-3 -10 -5 -2 -5 17 0 19 2 27 5 18 2 -10 2 -26 0 -35z m-4665 -54
c33 -11 67 -27 75 -35 13 -12 11 -14 -11 -14 -16 0 -26 6 -26 15 0 8 -7 15
-16 15 -8 0 -13 -4 -9 -9 3 -6 -33 -11 -85 -13 -49 -2 -90 1 -90 5 0 18 51 57
75 57 14 0 53 -9 87 -21z m3678 -18 c-8 -5 -35 -12 -60 -16 -25 -4 -57 -14
-72 -21 -35 -18 -36 -18 -34 9 1 16 9 24 31 28 47 10 152 10 135 0z m-3703
-164 c16 -16 13 -17 -69 -17 -48 0 -98 -4 -112 -10 -31 -11 -35 4 -9 33 15 16
29 18 95 15 57 -2 82 -8 95 -21z m139 -23 c8 3 14 1 14 -4 0 -6 -13 -10 -30
-10 -31 0 -35 -6 -43 -75 -3 -26 -4 -25 -6 8 0 21 4 47 9 58 8 15 7 19 -5 19
-8 0 -15 -8 -15 -17 0 -15 -2 -16 -10 -3 -6 9 -5 17 2 21 6 4 8 11 4 17 -11
19 28 18 47 -1 10 -10 25 -16 33 -13z m3529 22 c-61 -20 -128 -28 -120 -16 3
5 0 10 -7 11 -7 0 -4 4 7 9 11 5 52 8 90 8 l70 0 -40 -12z m-3630 -6 c3 -5 1
-10 -4 -10 -6 0 -11 5 -11 10 0 6 2 10 4 10 3 0 8 -4 11 -10z m3288 -5 c36 -4
37 -4 37 -17 0 -9 -3 -9 -11 -1 -10 10 -49 7 -49 -4 0 -3 -11 -61 -25 -128
-21 -105 -114 -385 -115 -347 0 7 -4 11 -9 8 -5 -4 -7 3 -4 14 3 11 9 23 14
26 5 3 9 14 9 25 0 10 5 19 11 19 6 0 9 9 6 20 -3 11 -2 20 3 20 4 0 11 16 14
35 4 19 10 35 15 35 4 0 13 46 20 103 19 155 31 206 48 200 8 -3 24 -7 36 -8z
m-1415 -92 c-10 -2 -28 -2 -40 0 -13 2 -5 4 17 4 22 1 32 -1 23 -4z m-991 -63
c6 0 15 -4 18 -10 4 -6 -6 -7 -26 -3 -39 8 -59 -14 -59 -66 0 -42 -8 -37 -14
9 -2 19 -5 40 -7 45 -2 6 2 20 9 32 11 20 14 21 40 7 15 -7 32 -14 39 -14z
m400 24 c-3 -3 -12 -4 -19 -1 -8 3 -5 6 6 6 11 1 17 -2 13 -5z m-1360 -18 c13
-13 -18 -24 -61 -22 -56 4 -138 -12 -148 -27 -5 -8 -8 -6 -8 7 0 11 8 28 18
39 15 17 27 19 104 15 48 -2 91 -7 95 -12z m1276 7 c-13 -2 -33 -2 -45 0 -13
2 -3 4 22 4 25 0 35 -2 23 -4z m-1166 -100 c-2 -21 -4 -6 -4 32 0 39 2 55 4
38 2 -18 2 -50 0 -70z m-67 72 c0 -8 -4 -15 -9 -15 -5 0 -11 7 -15 15 -3 9 0
15 9 15 8 0 15 -7 15 -15z m1010 1 c0 -2 -7 -7 -16 -10 -8 -3 -12 -2 -9 4 6
10 25 14 25 6z m1330 -7 c0 -14 -97 -106 -145 -137 -73 -47 -169 -90 -250
-114 -69 -20 -102 -23 -235 -23 -116 1 -171 5 -220 19 -95 25 -219 89 -281
145 l-53 48 49 6 c84 11 579 47 760 56 260 12 375 13 375 0z m-1363 -66 c-3
-10 -5 -2 -5 17 0 19 2 27 5 18 2 -10 2 -26 0 -35z m-342 -21 c-3 -3 -11 0
-18 7 -9 10 -8 11 6 5 10 -3 15 -9 12 -12z m352 -34 c-3 -7 -5 -2 -5 12 0 14
2 19 5 13 2 -7 2 -19 0 -25z m-920 -110 c-2 -24 -4 -5 -4 42 0 47 2 66 4 43 2
-24 2 -62 0 -85z m-154 101 c22 -6 37 -13 34 -15 -2 -3 -41 -7 -85 -9 -56 -3
-91 -10 -116 -24 -26 -15 -36 -17 -36 -8 0 54 107 83 203 56z m3597 -13 c0 -2
-9 -6 -20 -9 -11 -3 -18 -1 -14 4 5 9 34 13 34 5z m-3167 -61 c-3 -9 -8 -14
-10 -11 -3 3 -2 9 2 15 9 16 15 13 8 -4z m-409 -80 c-4 -8 -10 -13 -14 -10
-16 10 -152 -23 -180 -44 -37 -26 -44 -27 -30 0 18 33 108 66 187 68 34 1 41
-2 37 -14z m3443 -11 c-3 -3 -12 -4 -19 -1 -8 3 -5 6 6 6 11 1 17 -2 13 -5z
m-682 -14 c3 -5 1 -10 -4 -10 -6 0 -11 5 -11 10 0 6 2 10 4 10 3 0 8 -4 11
-10z m2070 -18 c-3 -3 -11 0 -18 7 -9 10 -8 11 6 5 10 -3 15 -9 12 -12z
m-1451 -11 c-10 -10 -21 -17 -23 -15 -6 6 20 34 32 34 6 0 2 -8 -9 -19z
m-3936 -96 c-3 -53 -2 -98 2 -100 4 -3 10 -15 13 -27 l6 -23 -20 24 c-20 25
-25 86 -13 175 11 76 16 52 12 -49z m5449 68 c0 -10 -4 -10 -16 -1 -9 7 -18
13 -20 15 -2 1 5 1 16 0 11 0 20 -7 20 -14z m-3738 -48 c0 -5 -6 1 -14 15 -8
14 -14 30 -14 35 0 6 6 -1 14 -15 8 -14 14 -29 14 -35z m3765 33 c-5 -7 -2 -9
8 -6 8 4 21 2 29 -3 11 -7 11 -9 1 -9 -8 0 -10 -5 -6 -12 4 -6 -3 -4 -16 5
-22 15 -40 54 -19 41 5 -3 6 -10 3 -16z m-1693 -5 c11 -15 11 -16 -1 -5 -23
20 -46 14 -74 -20 -96 -122 -196 -262 -196 -275 0 -9 -3 -14 -6 -10 -9 8 11
62 31 84 40 45 74 96 69 104 -3 5 0 8 7 7 7 -2 13 4 14 12 1 8 6 14 13 13 11
-3 16 10 13 30 -1 5 3 6 8 3 4 -3 21 12 36 34 30 44 63 52 86 23z m-2229 -16
c-12 -13 -22 -34 -22 -48 -1 -23 -1 -23 -15 -5 -22 29 -18 43 13 60 40 22 49
19 24 -7z m4029 -42 c11 -4 18 -9 16 -11 -8 -8 -76 29 -71 38 3 4 12 2 20 -6
8 -8 23 -18 35 -21z m155 3 c-18 -26 -22 -17 -5 14 6 11 13 17 16 15 3 -3 -2
-16 -11 -29z m-69 -44 c-5 -5 -57 13 -57 20 0 3 14 0 31 -6 16 -6 28 -12 26
-14z m-3217 6 c0 -5 -7 -10 -15 -10 -8 0 -15 5 -15 10 0 6 7 10 15 10 8 0 15
-4 15 -10z m3255 -18 c-3 -3 -11 0 -18 7 -9 10 -8 11 6 5 10 -3 15 -9 12 -12z
m-3339 -19 c-4 -10 -4 -14 0 -10 8 8 34 -11 34 -24 0 -5 -9 -9 -20 -9 -11 0
-20 -7 -20 -15 0 -8 -6 -15 -14 -15 -24 0 -29 -20 -11 -40 13 -14 13 -19 3
-23 -7 -3 -3 -6 10 -6 32 -1 27 -20 -8 -32 -31 -11 -38 -23 -20 -34 6 -3 10
-2 10 3 0 6 9 8 20 5 11 -3 17 -10 13 -16 -3 -5 1 -15 10 -22 14 -10 8 -12
-30 -14 -26 -1 -50 -7 -55 -14 -6 -9 -12 -9 -28 1 -11 6 -32 12 -47 12 -29 0
-73 35 -73 57 0 8 4 12 9 9 5 -4 7 3 4 14 -8 31 11 24 25 -10 19 -43 35 -38
30 10 -2 29 1 41 12 46 12 5 11 8 -5 14 -19 8 -19 9 3 9 23 1 50 14 91 44 l24
17 -24 0 -23 0 24 17 c14 9 29 23 33 30 12 19 30 16 23 -4z m-1089 -9 c-3 -3
-12 -4 -19 -1 -8 3 -5 6 6 6 11 1 17 -2 13 -5z m-40 -10 c-3 -3 -12 -4 -19 -1
-8 3 -5 6 6 6 11 1 17 -2 13 -5z m1023 -44 c0 -5 -5 -10 -11 -10 -5 0 -7 5 -4
10 3 6 8 10 11 10 2 0 4 -4 4 -10z m-1449 -42 c-11 -11 -13 -10 -7 0 4 7 2 21
-5 30 -12 15 -11 15 6 0 16 -15 17 -20 6 -30z m-796 22 c-4 -6 4 -26 16 -46
14 -23 24 -32 29 -24 5 8 9 7 13 -5 4 -9 3 -13 -3 -10 -6 3 -10 2 -10 -4 0 -6
25 -27 55 -48 46 -32 75 -63 60 -63 -2 0 -31 22 -63 49 -73 61 -136 161 -101
161 5 0 7 -5 4 -10z m3706 -17 c-8 -15 -10 -15 -11 -2 0 17 10 32 18 25 2 -3
-1 -13 -7 -23z m-2061 -7 c0 -3 -4 -8 -10 -11 -5 -3 -10 -1 -10 4 0 6 5 11 10
11 6 0 10 -2 10 -4z m2017 -14 c-10 -10 -14 -22 -10 -27 5 -4 2 -5 -5 -1 -11
6 -10 12 4 27 9 10 19 19 22 19 3 0 -2 -8 -11 -18z m1874 -13 l41 -20 -23 -26
c-13 -14 -33 -29 -44 -34 -11 -5 -3 5 18 23 l38 32 -43 23 c-24 12 -39 22 -35
23 4 0 26 -9 48 -21z m-4334 -11 c-3 -8 -6 -5 -6 6 -1 11 2 17 5 13 3 -3 4
-12 1 -19z m403 -37 c-28 -56 -35 -52 -8 4 12 24 23 43 26 41 2 -2 -6 -22 -18
-45z m2100 33 c0 -2 -7 -4 -15 -4 -8 0 -15 4 -15 10 0 5 7 7 15 4 8 -4 15 -8
15 -10z m-2503 -76 c-3 -7 -5 -2 -5 12 0 14 2 19 5 13 2 -7 2 -19 0 -25z
m2421 4 c-13 -16 -25 -25 -26 -20 -4 8 35 48 45 48 3 0 -6 -13 -19 -28z
m-1235 -9 c-7 -2 -19 -2 -25 0 -7 3 -2 5 12 5 14 0 19 -2 13 -5z m-813 -8 c0
-2 -10 -9 -22 -15 -22 -11 -22 -10 -4 4 21 17 26 19 26 11z m-363 -47 c-3 -8
-6 -5 -6 6 -1 11 2 17 5 13 3 -3 4 -12 1 -19z m2169 11 c4 -7 0 -9 -14 -5 -23
8 -68 -12 -122 -54 -47 -37 -150 -94 -150 -83 0 4 -4 3 -8 -3 -4 -6 -33 -28
-65 -49 -49 -31 -58 -41 -55 -60 3 -16 1 -22 -8 -18 -7 2 -11 13 -9 24 4 22
69 86 82 82 5 -2 20 6 33 17 13 11 29 20 37 20 8 0 11 4 8 10 -3 5 0 8 7 5 7
-3 29 10 49 27 20 18 46 34 59 36 27 3 52 21 45 32 -3 5 0 12 6 16 8 4 9 3 5
-4 -10 -17 6 -15 30 3 23 17 60 19 70 4z m164 -39 c8 -5 11 -10 5 -10 -5 0
-17 5 -25 10 -8 5 -10 10 -5 10 6 0 17 -5 25 -10z m-77 -15 c-3 -9 -8 -14 -10
-11 -3 3 -2 9 2 15 9 16 15 13 8 -4z m-1830 -22 c-7 -2 -19 -2 -25 0 -7 3 -2
5 12 5 14 0 19 -2 13 -5z m-939 -14 c-4 -8 1 -9 17 -5 20 6 21 5 6 -4 -9 -6
-21 -9 -26 -5 -5 3 -13 1 -16 -5 -4 -6 -3 -10 2 -9 4 1 19 1 33 0 l25 -2 -23
-10 c-15 -6 -30 -5 -43 1 -14 8 -19 8 -17 -1 2 -6 -3 -14 -9 -16 -25 -9 -13
16 20 41 36 29 41 31 31 15z m871 -9 c-3 -5 -12 -10 -18 -10 -7 0 -6 4 3 10
19 12 23 12 15 0z m-1559 -41 c3 -6 -5 -3 -20 6 -14 10 -26 19 -26 22 0 7 39
-17 46 -28z m3379 1 c3 -6 -1 -7 -9 -4 -18 7 -21 14 -7 14 6 0 13 -4 16 -10z
m-2730 -10 c9 7 18 10 21 7 3 -3 -12 -17 -32 -31 -42 -28 -63 -22 -44 14 9 17
14 19 26 9 11 -9 17 -9 29 1z m-600 -20 c3 -5 1 -10 -4 -10 -6 0 -11 5 -11 10
0 6 2 10 4 10 3 0 8 -4 11 -10z m51 -26 c18 -14 18 -14 -6 -3 -31 14 -36 19
-24 19 6 0 19 -7 30 -16z m3207 -13 c-18 -22 -43 -28 -43 -11 0 9 52 41 58 35
2 -2 -5 -13 -15 -24z m-3248 9 c8 -13 -5 -13 -25 0 -13 8 -13 10 2 10 9 0 20
-4 23 -10z m779 -22 c-4 -6 2 -8 17 -3 20 5 19 3 -6 -13 -16 -11 -34 -17 -39
-14 -5 3 -1 9 10 13 10 4 17 8 14 9 -48 14 -70 1 -64 -38 4 -26 4 -26 -12 -7
-14 19 -13 22 22 52 28 25 40 30 50 22 8 -6 11 -16 8 -21z m-683 4 c-7 -2 -18
1 -23 6 -8 8 -4 9 13 5 13 -4 18 -8 10 -11z m72 -19 c-7 -2 -21 -2 -30 0 -10
3 -4 5 12 5 17 0 24 -2 18 -5z m72 -13 c19 -8 19 -9 -2 -9 -12 -1 -25 4 -28 9
-7 12 2 12 30 0z m1058 3 c-7 -2 -19 -2 -25 0 -7 3 -2 5 12 5 14 0 19 -2 13
-5z m44 -9 c-3 -3 -12 -4 -19 -1 -8 3 -5 6 6 6 11 1 17 -2 13 -5z m1436 -1
c-7 -2 -19 -2 -25 0 -7 3 -2 5 12 5 14 0 19 -2 13 -5z m-76 -19 c-3 -3 -12 -4
-19 -1 -8 3 -5 6 6 6 11 1 17 -2 13 -5z m-47 -14 c-8 -5 -19 -10 -25 -10 -5 0
-3 5 5 10 8 5 20 10 25 10 6 0 3 -5 -5 -10z m423 -7 c-4 -10 -9 -11 -19 -2
-18 15 -18 15 5 15 11 0 17 -5 14 -13z m-2191 -30 c-9 -7 -21 -12 -27 -12 -5
0 -2 4 8 10 9 6 15 15 12 20 -4 5 -11 6 -17 3 -7 -4 -8 -2 -4 4 5 9 12 9 26 0
17 -11 17 -13 2 -25z m2085 11 c-3 -3 -12 -4 -19 -1 -8 3 -5 6 6 6 11 1 17 -2
13 -5z m28 -14 c-3 -5 -15 -10 -26 -10 -10 0 -19 -6 -19 -12 0 -9 -4 -8 -10 2
-7 12 -3 16 18 21 41 10 44 10 37 -1z m-80 -20 c-2 -11 1 -20 7 -20 6 0 8 -3
5 -6 -4 -4 -13 -1 -22 6 -8 7 -15 9 -15 5 0 -5 -3 -6 -6 -2 -6 6 16 36 28 37
4 0 5 -9 3 -20z m2003 -32 l-1 -53 -6 45 c-6 43 -5 60 5 60 2 0 3 -24 2 -52z
m-3150 5 c-10 -2 -26 -2 -35 0 -10 3 -2 5 17 5 19 0 27 -2 18 -5z m499 1 c-3
-3 -12 -4 -19 -1 -8 3 -5 6 6 6 11 1 17 -2 13 -5z m-307 -15 c41 -6 82 -10 90
-10 9 0 27 -10 40 -20 22 -18 22 -19 3 -10 -12 6 -84 18 -160 27 -76 9 -140
18 -142 20 -8 7 93 3 169 -7z m2870 4 c0 -5 -5 -15 -10 -23 -8 -12 -10 -11
-10 8 0 12 5 22 10 22 6 0 10 -3 10 -7z m-2110 -58 c0 -8 -4 -15 -10 -15 -5 0
-7 7 -4 15 4 8 8 15 10 15 2 0 4 -7 4 -15z m-1357 -12 c-7 -2 -19 -2 -25 0 -7
3 -2 5 12 5 14 0 19 -2 13 -5z m1344 -35 c-3 -8 -6 -5 -6 6 -1 11 2 17 5 13 3
-3 4 -12 1 -19z m-290 -75 c-3 -10 -5 -4 -5 12 0 17 2 24 5 18 2 -7 2 -21 0
-30z m2473 4 c0 -7 -7 -22 -15 -33 -13 -17 -13 -16 -3 14 13 34 18 40 18 19z
m-4389 -20 c-10 -9 -11 -8 -5 6 3 10 9 15 12 12 3 -3 0 -11 -7 -18z m1359 19
c0 -3 -4 -8 -10 -11 -5 -3 -10 -1 -10 4 0 6 5 11 10 11 6 0 10 -2 10 -4z m420
0 c0 -3 -4 -8 -10 -11 -5 -3 -10 -1 -10 4 0 6 5 11 10 11 6 0 10 -2 10 -4z
m1730 -851 c-7 -9 -15 -13 -19 -10 -3 3 1 10 9 15 21 14 24 12 10 -5z m-400
-35 c-12 -8 -12 -10 -1 -10 8 0 12 -2 9 -5 -3 -3 -13 -2 -22 1 -14 5 -15 9 -4
15 7 5 18 9 23 9 6 0 3 -5 -5 -10z m-83 -146 c-3 -3 -12 -4 -19 -1 -8 3 -5 6
6 6 11 1 17 -2 13 -5z"/>
<path d="M2465 4890 c3 -5 8 -10 11 -10 2 0 4 5 4 10 0 6 -5 10 -11 10 -5 0
-7 -4 -4 -10z"/>
<path d="M4480 4388 c-89 -46 -132 -170 -87 -256 35 -66 134 -104 214 -83 122
33 173 162 107 268 -52 83 -152 113 -234 71z m111 -19 c24 -17 29 -27 29 -64
0 -65 -33 -100 -95 -100 -39 0 -51 5 -71 28 -40 47 -29 113 24 141 38 21 79
19 113 -5z m-131 -219 c0 -11 -4 -20 -10 -20 -5 0 -10 9 -10 20 0 11 5 20 10
20 6 0 10 -9 10 -20z"/>
<path d="M3265 4355 c-76 -27 -136 -129 -121 -208 15 -81 97 -147 182 -147 82
0 163 66 178 145 24 129 -117 253 -239 210z m102 -27 c33 -31 32 -100 -1 -133
-49 -49 -115 -42 -154 16 -28 41 -23 73 19 112 38 35 101 38 136 5z m-127
-224 c0 -17 -22 -14 -28 4 -2 7 3 12 12 12 9 0 16 -7 16 -16z"/>
<path d="M2240 3796 c0 -2 7 -7 16 -10 8 -3 12 -2 9 4 -6 10 -25 14 -25 6z"/>
<path d="M5442 3750 c0 -14 2 -19 5 -12 2 6 2 18 0 25 -3 6 -5 1 -5 -13z"/>
<path d="M5431 3704 c0 -11 3 -14 6 -6 3 7 2 16 -1 19 -3 4 -6 -2 -5 -13z"/>
<path d="M3016 3644 c-8 -22 -4 -25 11 -9 7 8 9 16 4 19 -5 3 -12 -1 -15 -10z"/>
<path d="M3820 3000 c0 -5 5 -10 11 -10 5 0 7 5 4 10 -3 6 -8 10 -11 10 -2 0
-4 -4 -4 -10z"/>
<path d="M3858 2863 c7 -3 16 -2 19 1 4 3 -2 6 -13 5 -11 0 -14 -3 -6 -6z"/>
<path d="M2386 2622 c-3 -5 1 -9 9 -9 8 0 12 4 9 9 -3 4 -7 8 -9 8 -2 0 -6 -4
-9 -8z"/>
<path d="M3306 8604 c-30 -30 -34 -70 -11 -113 26 -52 91 -57 137 -11 26 27
30 36 25 68 -13 77 -98 108 -151 56z m64 -37 c0 -5 -4 -5 -10 -2 -6 3 -7 -1
-4 -9 3 -9 1 -16 -5 -16 -6 0 -11 7 -11 16 0 8 -4 12 -10 9 -5 -3 -10 1 -10 9
0 29 49 22 50 -7z"/>
<path d="M3770 8603 c0 -6 16 -31 36 -57 55 -72 74 -122 74 -199 0 -42 -6 -79
-15 -98 -9 -16 -13 -35 -9 -41 5 -7 3 -8 -6 -3 -10 6 -12 4 -7 -9 4 -10 3 -15
-3 -11 -6 3 -15 3 -21 -1 -8 -4 -7 -9 2 -15 7 -4 -7 -6 -33 -5 -25 2 -51 7
-57 10 -7 5 -11 -4 -11 -26 0 -46 19 -110 30 -103 6 3 7 0 4 -8 -8 -22 79
-110 140 -141 126 -64 239 -11 282 130 18 59 18 103 0 179 -23 94 -35 122 -47
105 -8 -11 -9 -10 -4 7 4 16 -5 39 -35 83 -23 33 -45 58 -50 55 -5 -3 -12 0
-16 6 -5 8 -2 10 7 5 8 -4 -6 10 -31 32 -72 64 -230 136 -230 105z m200 -249
c0 -8 4 -12 10 -9 16 10 89 -65 114 -120 15 -31 26 -73 28 -110 3 -63 -17
-129 -35 -118 -5 3 -7 1 -3 -5 13 -22 -25 -43 -76 -41 -38 2 -52 7 -60 23 -6
12 -26 41 -45 65 -30 40 -45 80 -25 67 5 -3 6 9 4 25 -4 27 20 93 39 109 3 3
10 23 14 45 5 22 9 43 10 48 2 4 3 16 4 28 1 23 21 16 21 -7z"/>
<path d="M2442 8370 c-26 -11 -52 -64 -44 -92 2 -10 16 -28 31 -39 49 -39 121
-1 121 62 0 28 -30 69 -49 69 -5 0 -15 2 -23 4 -7 3 -23 1 -36 -4z"/>
<path d="M6334 7896 c-17 -8 -44 -31 -60 -52 -24 -31 -29 -47 -30 -96 0 -32
-6 -64 -12 -70 -17 -17 -15 -93 3 -128 22 -42 65 -61 138 -61 34 1 87 -1 117
-5 47 -5 60 -2 90 18 20 14 40 39 49 62 13 35 13 44 -1 83 -12 34 -13 50 -5
72 20 54 -30 135 -89 144 -11 1 -33 13 -49 25 -32 26 -102 29 -151 8z m71 -76
c8 -25 -2 -45 -31 -60 -28 -15 -39 -8 -49 31 -5 21 -2 30 15 42 25 18 57 12
65 -13z"/>
<path d="M2473 7820 c-12 -5 -29 -20 -39 -35 -9 -14 -27 -28 -40 -31 -33 -8
-64 -50 -64 -86 0 -64 57 -138 106 -138 13 0 24 -4 24 -10 0 -14 55 -40 86
-40 16 0 39 13 61 35 32 32 35 40 30 75 -3 22 -1 43 4 46 5 3 9 23 9 45 0 41
-26 79 -55 79 -8 0 -15 6 -15 13 0 34 -67 64 -107 47z"/>
<path d="M3086 7713 c4 -15 10 -30 13 -33 3 -3 8 -23 11 -45 9 -80 2 -160 -18
-214 -12 -30 -18 -59 -15 -64 3 -6 1 -7 -4 -4 -6 4 -16 1 -22 -7 -9 -11 -9
-15 1 -19 7 -2 -7 -4 -31 -3 -29 2 -48 8 -57 21 -14 18 -14 18 -15 -1 0 -10
-2 -30 -4 -44 -2 -24 10 -60 25 -70 4 -3 22 -30 40 -60 57 -95 102 -130 166
-130 86 0 164 84 164 177 0 39 -59 226 -103 328 -29 68 -68 126 -78 119 -5 -3
-8 0 -7 8 2 7 -3 12 -10 10 -8 -1 -11 1 -8 6 3 5 -8 19 -25 31 l-30 22 7 -28z
m158 -346 c4 4 4 0 1 -10 -4 -9 0 -23 9 -32 24 -24 22 -135 -4 -184 -16 -33
-60 -63 -60 -42 0 4 -10 7 -22 6 -36 -4 -76 49 -83 110 -7 59 -4 105 7 105 4
0 8 9 8 20 0 14 5 18 17 13 12 -5 15 -2 10 9 -7 20 25 107 44 118 10 7 20 -6
39 -56 14 -35 29 -61 34 -57z m-189 -67 c-3 -5 -12 -10 -18 -10 -7 0 -6 4 3
10 19 12 23 12 15 0z"/>
<path d="M1596 7297 c-45 -25 -77 -76 -82 -127 -1 -19 -7 -49 -12 -67 -18 -56
17 -128 66 -139 15 -3 41 -12 58 -20 42 -18 89 -8 117 25 12 15 38 31 57 37
120 34 96 244 -27 244 -18 0 -33 8 -41 21 -12 18 -68 49 -89 49 -4 0 -26 -10
-47 -23z"/>
<path d="M7266 7059 c-46 -36 -30 -122 24 -129 85 -12 133 68 75 125 -30 30
-64 32 -99 4z"/>
<path d="M910 6400 c-14 -4 -47 -20 -75 -37 -63 -36 -89 -82 -80 -138 7 -44 7
-48 5 -122 -2 -69 22 -111 80 -141 35 -18 55 -22 89 -18 24 3 49 10 56 16 6 5
34 7 63 3 61 -7 105 8 131 46 26 38 31 81 15 126 -9 22 -16 66 -17 98 -2 54
-5 61 -39 93 -28 25 -47 34 -73 34 -20 0 -48 9 -63 19 -35 25 -61 31 -92 21z
m-32 -92 c20 -20 14 -46 -14 -64 -22 -15 -27 -15 -35 -3 -19 31 -4 79 26 79 6
0 16 -5 23 -12z"/>
<path d="M7492 6298 c-16 -90 -19 -104 -32 -128 -6 -11 -8 -26 -4 -32 4 -6 3
-8 -3 -5 -6 4 -21 -5 -34 -20 -32 -34 -95 -74 -128 -79 -14 -2 -38 -7 -53 -10
-15 -3 -40 1 -56 10 -16 8 -33 12 -37 8 -5 -4 -6 -2 -2 3 3 6 2 17 -3 25 -7
11 -11 8 -19 -13 -16 -40 -14 -76 8 -138 10 -30 21 -81 26 -114 20 -164 115
-225 250 -161 72 34 168 148 149 177 -4 7 -3 9 3 6 13 -8 30 30 48 107 19 79
19 151 0 234 -15 66 -72 183 -92 189 -5 2 -15 -25 -21 -59z m1 -292 c-1 -39 2
-56 10 -55 40 5 44 -20 13 -78 -62 -121 -164 -204 -223 -182 -22 8 -53 46 -53
64 0 5 5 3 10 -5 5 -8 10 -10 10 -4 0 5 -5 15 -10 20 -12 12 -23 108 -15 133
11 34 204 159 226 146 5 -4 9 1 9 10 0 9 6 15 13 12 8 -3 11 -23 10 -61z"/>
<path d="M7497 5901 c-4 -17 -3 -21 5 -13 5 5 8 16 6 23 -3 8 -7 3 -11 -10z"/>
<path d="M7661 4741 c-47 -44 -39 -125 16 -150 88 -40 172 43 129 127 -31 60
-95 70 -145 23z"/>
<path d="M748 3970 c-84 -65 -40 -210 63 -210 75 0 119 41 119 111 0 93 -112
154 -182 99z"/>
<path d="M6698 3063 c7 -3 16 -2 19 1 4 3 -2 6 -13 5 -11 0 -14 -3 -6 -6z"/>
<path d="M2395 1682 c42 -114 63 -154 120 -229 139 -186 364 -295 650 -318 44
-3 102 -8 129 -11 27 -2 47 -2 45 1 -3 2 -52 21 -109 40 -58 20 -132 51 -166
70 -33 18 -75 36 -92 40 -18 4 -46 18 -62 32 -17 14 -54 34 -83 45 -28 11 -73
40 -99 64 -26 24 -53 44 -61 44 -7 0 -29 16 -48 36 -18 20 -51 47 -71 60 -21
13 -48 40 -60 59 -13 19 -30 37 -39 40 -9 3 -28 28 -43 55 -42 78 -47 67 -11
-28z"/>
</g>
</svg>
